# xmcd
#
# Track frame offsets: 
#        150
#        25866
#        47404
#        64847
#        83574
#        102815
#        121603
#
# Disc length: 2179 seconds
#
# Revision: 0
# Processed by: cddbd v1.5PL3 Copyright (c) Steve Scherf et al.
# Submitted via: ExactAudioCopy v0.95a5
#
DISCID=46088107
DTITLE=Big Brother and the Holding Company - Cheap Thrills
DYEAR=1967
DGENRE=Blues
TTITLE0=Combination of the two
TTITLE1=I need a man to love
TTITLE2=Summertime
TTITLE3=Piece of my heart
TTITLE4=Turtle Blues
TTITLE5=Oh, Sweet Mary
TTITLE6=Ball and Chain
EXTD=
EXTT0=
EXTT1=
EXTT2=
EXTT3=
EXTT4=
EXTT5=
EXTT6=
PLAYORDER=
